<?xml version="1.0" encoding="UTF-8" standalone="no"?><!-- Generator: Gravit.io --><svg xmlns="http://www.w3.org/2000/svg" xmlns:xlink="http://www.w3.org/1999/xlink" style="isolation:isolate" viewBox="0 0 32 32" width="32pt" height="32pt"><defs><clipPath id="_clipPath_6UQ1wuiIe6Kn70hrHrE3CB7Ic9lnvCKG"><rect width="32" height="32"/></clipPath></defs><g clip-path="url(#_clipPath_6UQ1wuiIe6Kn70hrHrE3CB7Ic9lnvCKG)"><path d=" M 2.742 28.439 L 2.742 28.439 L 2.742 28.439 Q 2.418 28.439 1.737 28.342 L 1.737 28.342 L 1.737 28.342 Q 1.218 27.791 0.812 26.834 L 0.812 26.834 L 0.812 26.834 Q 0.407 25.877 0.196 24.79 L 0.196 24.79 L 0.196 24.79 Q -0.015 23.704 0.001 22.617 L 0.001 22.617 L 0.001 22.617 Q 0.017 21.53 0.374 20.687 L 0.374 20.687 L 0.374 20.687 Q 0.374 20.655 0.682 19.909 L 0.682 19.909 L 0.682 19.909 Q 0.99 19.163 1.477 18.011 L 1.477 18.011 L 1.477 18.011 Q 1.964 16.86 2.58 15.449 L 2.58 15.449 L 2.58 15.449 Q 3.196 14.038 3.812 12.675 L 3.812 12.675 L 3.812 12.675 Q 4.429 11.313 4.996 10.194 L 4.996 10.194 L 4.996 10.194 Q 5.564 9.075 5.986 8.458 L 5.986 8.458 L 5.986 8.458 Q 6.278 8.004 6.521 7.583 L 6.521 7.583 L 6.521 7.583 Q 6.764 7.161 6.991 6.804 L 6.991 6.804 L 6.991 6.804 Q 7.348 6.22 7.656 5.718 L 7.656 5.718 L 7.656 5.718 Q 7.964 5.215 8.337 4.809 L 8.337 4.809 L 8.337 4.809 Q 8.71 4.404 9.165 4.096 L 9.165 4.096 L 9.165 4.096 Q 9.619 3.788 10.267 3.561 L 10.267 3.561 L 10.267 3.561 Q 10.657 3.723 10.949 3.901 L 10.949 3.901 L 10.949 3.901 Q 11.24 4.079 11.468 4.339 L 11.468 4.339 L 11.565 4.793 L 11.565 4.793 Q 11.63 5.02 11.776 5.101 L 11.776 5.101 L 11.776 5.101 Q 11.922 5.182 12.019 5.182 L 12.019 5.182 L 12.019 5.182 Q 12.441 5.28 12.749 5.393 L 12.749 5.393 L 12.749 5.393 Q 13.057 5.507 13.414 5.539 L 13.414 5.539 L 13.414 5.539 Q 13.543 5.734 13.657 5.928 L 13.657 5.928 L 13.657 5.928 Q 13.771 6.123 13.9 6.285 L 13.9 6.285 L 13.9 6.285 Q 14.549 7.226 14.971 8.102 L 14.971 8.102 L 14.971 8.102 Q 15.392 8.977 14.971 10.015 L 14.971 10.015 L 15.003 10.372 L 15.003 10.372 Q 15.165 10.599 15.165 10.794 L 15.165 10.794 L 15.165 10.794 Q 15.165 10.989 15.1 11.345 L 15.1 11.345 L 15.1 11.345 Q 15.068 11.605 15.052 11.913 L 15.052 11.913 L 15.052 11.913 Q 15.036 12.221 15.133 12.578 L 15.133 12.578 L 15.36 12.837 L 15.36 12.837 Q 15.879 13.097 16.365 13.097 L 16.365 13.097 L 16.365 13.097 Q 17.014 13.097 17.533 12.805 L 17.533 12.805 L 17.533 12.805 Q 18.052 12.513 18.506 12.221 L 18.506 12.221 L 18.506 12.221 Q 18.863 11.962 19.171 11.799 L 19.171 11.799 L 19.171 11.799 Q 19.479 11.637 19.771 11.572 L 19.771 11.572 L 19.771 11.572 Q 20.453 10.924 21.02 10.421 L 21.02 10.421 L 21.02 10.421 Q 21.588 9.918 22.204 9.399 L 22.204 9.399 L 22.204 9.399 Q 23.372 8.458 24.475 7.372 L 24.475 7.372 L 24.475 7.372 Q 25.578 6.285 26.226 4.663 L 26.226 4.663 L 26.226 4.663 Q 26.583 4.436 27.037 4.436 L 27.037 4.436 L 27.037 4.436 Q 27.491 4.436 27.945 4.615 L 27.945 4.615 L 27.945 4.615 Q 28.4 4.793 28.854 5.02 L 28.854 5.02 L 28.854 5.02 Q 28.951 5.085 29.032 5.117 L 29.032 5.117 L 29.032 5.117 Q 29.113 5.15 29.21 5.215 L 29.21 5.215 L 29.21 5.215 Q 29.21 5.572 29.502 5.864 L 29.502 5.864 L 29.502 5.864 Q 29.665 5.993 29.729 6.026 L 29.729 6.026 L 29.729 6.026 Q 29.794 6.058 29.859 6.091 L 29.859 6.091 L 29.859 6.091 Q 30.119 6.253 30.297 6.383 L 30.297 6.383 L 30.297 6.383 Q 30.475 6.512 30.573 6.739 L 30.573 6.739 L 30.573 6.739 Q 30.865 7.615 31.546 8.102 L 31.546 8.102 L 31.546 8.102 Q 31.481 8.458 31.578 8.799 L 31.578 8.799 L 31.578 8.799 Q 31.676 9.14 31.805 9.464 L 31.805 9.464 L 31.805 9.464 Q 31.87 9.594 31.903 9.707 L 31.903 9.707 L 31.903 9.707 Q 31.935 9.821 32 9.983 L 32 9.983 L 31.286 9.918 L 31.384 10.632 L 31.384 10.632 Q 31.481 11.183 31.303 11.864 L 31.303 11.864 L 31.303 11.864 Q 31.124 12.545 30.897 12.935 L 30.897 12.935 L 30.897 12.935 Q 30.962 13.908 30.962 14.475 L 30.962 14.475 L 30.962 14.475 Q 30.962 15.043 30.897 15.53 L 30.897 15.53 L 30.897 15.53 Q 30.832 16.016 30.686 16.454 L 30.686 16.454 L 30.686 16.454 Q 30.54 16.892 30.313 17.379 L 30.313 17.379 L 30.313 17.379 Q 30.443 19.844 29.746 21.887 L 29.746 21.887 L 29.746 21.887 Q 29.048 23.931 28.237 25.715 L 28.237 25.715 L 28.237 25.715 Q 28.14 25.942 28.043 26.136 L 28.043 26.136 L 28.043 26.136 Q 27.945 26.331 27.881 26.526 L 27.881 26.526 L 27.881 26.526 Q 27.524 26.623 27.232 26.753 L 27.232 26.753 L 27.232 26.753 Q 26.94 26.883 26.68 27.045 L 26.68 27.045 L 26.68 27.045 Q 26.324 27.272 25.967 27.418 L 25.967 27.418 L 25.967 27.418 Q 25.61 27.564 25.221 27.564 L 25.221 27.564 L 25.221 27.564 Q 23.664 26.428 23.615 23.639 L 23.615 23.639 L 23.615 23.639 Q 23.566 20.849 24.799 16.535 L 24.799 16.535 L 24.799 16.535 Q 25.026 16.373 24.994 16.049 L 24.994 16.049 L 24.994 15.692 L 24.669 15.659 L 24.669 15.659 Q 24.507 15.659 24.377 15.692 L 24.377 15.692 L 24.377 15.692 Q 24.248 15.724 24.183 15.984 L 24.183 15.984 L 24.183 15.984 Q 23.145 16.73 21.928 17.525 L 21.928 17.525 L 21.928 17.525 Q 20.712 18.319 19.415 18.984 L 19.415 18.984 L 19.415 18.984 Q 18.117 19.649 16.771 20.087 L 16.771 20.087 L 16.771 20.087 Q 15.425 20.525 14.16 20.525 L 14.16 20.525 L 14.16 20.525 Q 10.916 20.525 9.262 17.216 L 9.262 17.216 L 8.97 16.633 L 8.646 17.152 L 8.646 17.152 Q 8.548 17.314 8.305 17.784 L 8.305 17.784 L 8.305 17.784 Q 8.062 18.254 7.818 18.871 L 7.818 18.871 L 7.818 18.871 Q 7.575 19.487 7.397 20.136 L 7.397 20.136 L 7.397 20.136 Q 7.218 20.784 7.283 21.271 L 7.283 21.271 L 7.283 21.271 Q 6.894 21.628 6.521 22.082 L 6.521 22.082 L 6.521 22.082 Q 6.148 22.536 5.986 23.12 L 5.986 23.12 L 5.986 23.12 Q 5.921 23.282 5.953 23.428 L 5.953 23.428 L 5.953 23.428 Q 5.986 23.574 6.051 23.736 L 6.051 23.736 L 6.051 23.736 Q 6.018 23.963 5.921 24.061 L 5.921 24.061 L 5.921 24.061 Q 5.824 24.158 5.694 24.255 L 5.694 24.255 L 5.694 24.255 Q 5.532 24.417 5.369 24.596 L 5.369 24.596 L 5.369 24.596 Q 5.207 24.774 5.078 25.001 L 5.078 25.001 L 5.078 25.001 Q 5.013 25.196 4.98 25.407 L 4.98 25.407 L 4.98 25.407 Q 4.948 25.617 4.915 25.78 L 4.915 25.78 L 4.915 25.78 Q 4.915 26.136 4.818 26.266 L 4.818 26.266 L 4.818 26.266 Q 4.494 26.947 4.25 27.385 L 4.25 27.385 L 4.25 27.385 Q 4.007 27.823 3.78 28.05 L 3.78 28.05 L 3.78 28.05 Q 3.553 28.277 3.31 28.358 L 3.31 28.358 L 3.31 28.358 Q 3.066 28.439 2.742 28.439 Z " fill="rgb(0,173,181)"/></g></svg>