<?xml version="1.0" encoding="UTF-8" standalone="no"?><!-- Generator: Gravit.io --><svg xmlns="http://www.w3.org/2000/svg" xmlns:xlink="http://www.w3.org/1999/xlink" style="isolation:isolate" viewBox="0 0 400 100" width="400pt" height="100pt"><defs><clipPath id="_clipPath_vmlgORsfi93Zfku5MUj70HksTwUoOUmH"><rect width="400" height="100"/></clipPath></defs><g clip-path="url(#_clipPath_vmlgORsfi93Zfku5MUj70HksTwUoOUmH)"><path d=" M 147.433 70.616 L 147.433 70.616 L 147.433 70.616 Q 146.861 70.616 145.658 70.444 L 145.658 70.444 L 145.658 70.444 Q 144.742 69.47 144.026 67.781 L 144.026 67.781 L 144.026 67.781 Q 143.31 66.092 142.938 64.173 L 142.938 64.173 L 142.938 64.173 Q 142.566 62.255 142.594 60.337 L 142.594 60.337 L 142.594 60.337 Q 142.623 58.418 143.253 56.929 L 143.253 56.929 L 143.253 56.929 Q 143.253 56.872 143.797 55.555 L 143.797 55.555 L 143.797 55.555 Q 144.341 54.238 145.2 52.205 L 145.2 52.205 L 145.2 52.205 Q 146.059 50.172 147.147 47.681 L 147.147 47.681 L 147.147 47.681 Q 148.235 45.19 149.323 42.784 L 149.323 42.784 L 149.323 42.784 Q 150.411 40.379 151.413 38.404 L 151.413 38.404 L 151.413 38.404 Q 152.415 36.428 153.16 35.34 L 153.16 35.34 L 153.16 35.34 Q 153.675 34.538 154.105 33.794 L 154.105 33.794 L 154.105 33.794 Q 154.534 33.049 154.935 32.419 L 154.935 32.419 L 154.935 32.419 Q 155.565 31.389 156.109 30.501 L 156.109 30.501 L 156.109 30.501 Q 156.653 29.613 157.312 28.897 L 157.312 28.897 L 157.312 28.897 Q 157.97 28.182 158.772 27.638 L 158.772 27.638 L 158.772 27.638 Q 159.574 27.094 160.719 26.693 L 160.719 26.693 L 160.719 26.693 Q 161.406 26.979 161.922 27.294 L 161.922 27.294 L 161.922 27.294 Q 162.437 27.609 162.838 28.067 L 162.838 28.067 L 163.01 28.869 L 163.01 28.869 Q 163.124 29.27 163.382 29.413 L 163.382 29.413 L 163.382 29.413 Q 163.64 29.556 163.811 29.556 L 163.811 29.556 L 163.811 29.556 Q 164.556 29.728 165.1 29.928 L 165.1 29.928 L 165.1 29.928 Q 165.644 30.129 166.274 30.186 L 166.274 30.186 L 166.274 30.186 Q 166.503 30.53 166.703 30.873 L 166.703 30.873 L 166.703 30.873 Q 166.904 31.217 167.133 31.503 L 167.133 31.503 L 167.133 31.503 Q 168.278 33.164 169.023 34.71 L 169.023 34.71 L 169.023 34.71 Q 169.767 36.256 169.023 38.089 L 169.023 38.089 L 169.08 38.719 L 169.08 38.719 Q 169.366 39.119 169.366 39.463 L 169.366 39.463 L 169.366 39.463 Q 169.366 39.807 169.252 40.437 L 169.252 40.437 L 169.252 40.437 Q 169.194 40.895 169.166 41.439 L 169.166 41.439 L 169.166 41.439 Q 169.137 41.983 169.309 42.613 L 169.309 42.613 L 169.71 43.071 L 169.71 43.071 Q 170.626 43.529 171.485 43.529 L 171.485 43.529 L 171.485 43.529 Q 172.63 43.529 173.547 43.014 L 173.547 43.014 L 173.547 43.014 Q 174.463 42.498 175.265 41.983 L 175.265 41.983 L 175.265 41.983 Q 175.895 41.525 176.439 41.238 L 176.439 41.238 L 176.439 41.238 Q 176.983 40.952 177.498 40.837 L 177.498 40.837 L 177.498 40.837 Q 178.701 39.692 179.703 38.805 L 179.703 38.805 L 179.703 38.805 Q 180.705 37.917 181.793 37.001 L 181.793 37.001 L 181.793 37.001 Q 183.854 35.34 185.802 33.421 L 185.802 33.421 L 185.802 33.421 Q 187.749 31.503 188.894 28.64 L 188.894 28.64 L 188.894 28.64 Q 189.524 28.239 190.326 28.239 L 190.326 28.239 L 190.326 28.239 Q 191.127 28.239 191.929 28.554 L 191.929 28.554 L 191.929 28.554 Q 192.731 28.869 193.532 29.27 L 193.532 29.27 L 193.532 29.27 Q 193.704 29.384 193.847 29.442 L 193.847 29.442 L 193.847 29.442 Q 193.991 29.499 194.162 29.613 L 194.162 29.613 L 194.162 29.613 Q 194.162 30.243 194.678 30.759 L 194.678 30.759 L 194.678 30.759 Q 194.964 30.988 195.079 31.045 L 195.079 31.045 L 195.079 31.045 Q 195.193 31.102 195.308 31.159 L 195.308 31.159 L 195.308 31.159 Q 195.766 31.446 196.081 31.675 L 196.081 31.675 L 196.081 31.675 Q 196.396 31.904 196.568 32.305 L 196.568 32.305 L 196.568 32.305 Q 197.083 33.851 198.286 34.71 L 198.286 34.71 L 198.286 34.71 Q 198.171 35.34 198.343 35.941 L 198.343 35.941 L 198.343 35.941 Q 198.515 36.542 198.744 37.115 L 198.744 37.115 L 198.744 37.115 Q 198.858 37.344 198.915 37.545 L 198.915 37.545 L 198.915 37.545 Q 198.973 37.745 199.087 38.031 L 199.087 38.031 L 197.827 37.917 L 197.999 39.177 L 197.999 39.177 Q 198.171 40.15 197.856 41.353 L 197.856 41.353 L 197.856 41.353 Q 197.541 42.555 197.14 43.243 L 197.14 43.243 L 197.14 43.243 Q 197.255 44.961 197.255 45.963 L 197.255 45.963 L 197.255 45.963 Q 197.255 46.965 197.14 47.824 L 197.14 47.824 L 197.14 47.824 Q 197.026 48.683 196.768 49.456 L 196.768 49.456 L 196.768 49.456 Q 196.51 50.229 196.109 51.088 L 196.109 51.088 L 196.109 51.088 Q 196.338 55.44 195.107 59.048 L 195.107 59.048 L 195.107 59.048 Q 193.876 62.656 192.444 65.805 L 192.444 65.805 L 192.444 65.805 Q 192.273 66.206 192.101 66.55 L 192.101 66.55 L 192.101 66.55 Q 191.929 66.893 191.814 67.237 L 191.814 67.237 L 191.814 67.237 Q 191.185 67.409 190.669 67.638 L 190.669 67.638 L 190.669 67.638 Q 190.154 67.867 189.696 68.153 L 189.696 68.153 L 189.696 68.153 Q 189.066 68.554 188.436 68.812 L 188.436 68.812 L 188.436 68.812 Q 187.806 69.07 187.119 69.07 L 187.119 69.07 L 187.119 69.07 Q 184.37 67.065 184.284 62.14 L 184.284 62.14 L 184.284 62.14 Q 184.198 57.216 186.374 49.599 L 186.374 49.599 L 186.374 49.599 Q 186.775 49.313 186.718 48.74 L 186.718 48.74 L 186.718 48.11 L 186.145 48.053 L 186.145 48.053 Q 185.859 48.053 185.63 48.11 L 185.63 48.11 L 185.63 48.11 Q 185.401 48.167 185.286 48.626 L 185.286 48.626 L 185.286 48.626 Q 183.454 49.943 181.306 51.346 L 181.306 51.346 L 181.306 51.346 Q 179.159 52.749 176.868 53.923 L 176.868 53.923 L 176.868 53.923 Q 174.577 55.097 172.201 55.87 L 172.201 55.87 L 172.201 55.87 Q 169.824 56.643 167.591 56.643 L 167.591 56.643 L 167.591 56.643 Q 161.864 56.643 158.944 50.802 L 158.944 50.802 L 158.428 49.771 L 157.856 50.687 L 157.856 50.687 Q 157.684 50.974 157.254 51.804 L 157.254 51.804 L 157.254 51.804 Q 156.825 52.634 156.395 53.722 L 156.395 53.722 L 156.395 53.722 Q 155.966 54.81 155.651 55.956 L 155.651 55.956 L 155.651 55.956 Q 155.336 57.101 155.451 57.96 L 155.451 57.96 L 155.451 57.96 Q 154.763 58.59 154.105 59.392 L 154.105 59.392 L 154.105 59.392 Q 153.446 60.193 153.16 61.224 L 153.16 61.224 L 153.16 61.224 Q 153.045 61.51 153.103 61.768 L 153.103 61.768 L 153.103 61.768 Q 153.16 62.026 153.274 62.312 L 153.274 62.312 L 153.274 62.312 Q 153.217 62.713 153.045 62.885 L 153.045 62.885 L 153.045 62.885 Q 152.874 63.057 152.645 63.228 L 152.645 63.228 L 152.645 63.228 Q 152.358 63.515 152.072 63.83 L 152.072 63.83 L 152.072 63.83 Q 151.786 64.145 151.556 64.546 L 151.556 64.546 L 151.556 64.546 Q 151.442 64.889 151.385 65.261 L 151.385 65.261 L 151.385 65.261 Q 151.327 65.634 151.27 65.92 L 151.27 65.92 L 151.27 65.92 Q 151.27 66.55 151.098 66.779 L 151.098 66.779 L 151.098 66.779 Q 150.526 67.982 150.096 68.755 L 150.096 68.755 L 150.096 68.755 Q 149.667 69.528 149.266 69.929 L 149.266 69.929 L 149.266 69.929 Q 148.865 70.329 148.435 70.473 L 148.435 70.473 L 148.435 70.473 Q 148.006 70.616 147.433 70.616 Z  M 229.782 64.775 L 229.667 65.004 L 229.667 65.004 Q 229.324 65.977 228.665 66.979 L 228.665 66.979 L 228.665 66.979 Q 228.007 67.982 227.119 68.755 L 227.119 68.755 L 227.119 68.755 Q 226.231 69.528 225.143 70.043 L 225.143 70.043 L 225.143 70.043 Q 224.055 70.558 222.853 70.616 L 222.853 70.616 L 222.853 70.616 Q 222.108 70.444 221.85 70.244 L 221.85 70.244 L 221.85 70.244 Q 221.593 70.043 221.306 69.871 L 221.306 69.871 L 221.306 69.871 Q 221.135 69.757 220.991 69.671 L 220.991 69.671 L 220.991 69.671 Q 220.848 69.585 220.734 69.528 L 220.734 69.528 L 220.047 69.241 L 220.276 68.497 L 220.276 68.497 Q 220.39 68.039 220.218 67.781 L 220.218 67.781 L 220.218 67.781 Q 220.047 67.523 219.531 67.065 L 219.531 67.065 L 219.531 67.065 Q 219.359 66.893 219.188 66.722 L 219.188 66.722 L 219.188 66.722 Q 219.016 66.55 218.901 66.378 L 218.901 66.378 L 217.928 65.29 L 219.474 64.889 L 219.474 64.889 Q 220.906 64.488 221.392 63.858 L 221.392 63.858 L 221.392 63.858 Q 221.879 63.228 221.765 61.74 L 221.765 61.74 L 221.765 61.74 Q 220.619 61.51 219.846 61.682 L 219.846 61.682 L 219.846 61.682 Q 219.073 61.854 218.271 62.083 L 218.271 62.083 L 218.271 62.083 Q 217.241 62.369 216.181 62.57 L 216.181 62.57 L 216.181 62.57 Q 215.122 62.77 213.862 62.77 L 213.862 62.77 L 213.862 62.77 Q 213.404 62.77 213.003 62.742 L 213.003 62.742 L 213.003 62.742 Q 212.602 62.713 212.144 62.656 L 212.144 62.656 L 211.571 62.541 L 211.571 62.541 Q 211.457 61.911 211.342 61.825 L 211.342 61.825 L 211.342 61.825 Q 211.228 61.74 211.113 61.625 L 211.113 61.625 L 211.113 61.625 Q 210.827 61.339 210.512 60.852 L 210.512 60.852 L 210.512 60.852 Q 210.197 60.365 210.369 59.621 L 210.369 59.621 L 210.369 59.621 Q 210.082 59.105 210.025 58.59 L 210.025 58.59 L 210.025 58.59 Q 209.681 59.277 209.51 60.022 L 209.51 60.022 L 209.281 60.594 L 208.708 60.709 L 208.708 60.709 Q 208.593 60.766 208.536 60.966 L 208.536 60.966 L 208.536 60.966 Q 208.479 61.167 208.479 61.281 L 208.479 61.281 L 208.193 62.255 L 208.193 62.255 Q 208.078 62.369 207.963 62.455 L 207.963 62.455 L 207.963 62.455 Q 207.849 62.541 207.734 62.656 L 207.734 62.656 L 207.734 62.656 Q 207.62 63.171 207.448 63.687 L 207.448 63.687 L 207.448 63.687 Q 207.276 64.202 207.104 64.66 L 207.104 64.66 L 207.104 64.66 Q 206.818 65.405 206.618 66.12 L 206.618 66.12 L 206.618 66.12 Q 206.417 66.836 206.475 67.523 L 206.475 67.523 L 206.245 68.153 L 206.245 68.153 Q 205.959 68.497 205.616 68.697 L 205.616 68.697 L 205.616 68.697 Q 205.272 68.898 204.928 69.07 L 204.928 69.07 L 204.928 69.07 Q 204.814 69.184 204.613 69.27 L 204.613 69.27 L 204.613 69.27 Q 204.413 69.356 204.298 69.413 L 204.298 69.413 L 204.127 70.043 L 203.439 70.158 L 203.439 70.158 Q 202.81 70.272 202.552 70.329 L 202.552 70.329 L 202.552 70.329 Q 202.294 70.387 201.951 70.387 L 201.951 70.387 L 201.378 70.329 L 201.378 70.329 Q 200.748 69.814 200.404 69.499 L 200.404 69.499 L 200.404 69.499 Q 200.061 69.184 199.603 68.898 L 199.603 68.898 L 199.603 68.898 Q 199.087 68.211 199.03 67.867 L 199.03 67.867 L 199.03 67.867 Q 198.973 67.523 198.915 67.237 L 198.915 67.237 L 198.915 67.237 Q 198.801 66.893 198.772 66.664 L 198.772 66.664 L 198.772 66.664 Q 198.744 66.435 198.629 66.321 L 198.629 66.321 L 197.885 65.634 L 198.515 65.118 L 198.572 64.145 L 198.572 64.145 Q 199.717 61.224 201.006 58.533 L 201.006 58.533 L 201.006 58.533 Q 202.294 55.841 203.669 53.035 L 203.669 53.035 L 203.669 53.035 Q 204.127 52.119 204.556 51.203 L 204.556 51.203 L 204.556 51.203 Q 204.986 50.286 205.444 49.37 L 205.444 49.37 L 205.444 49.37 Q 205.386 49.198 205.386 48.969 L 205.386 48.969 L 205.386 48.969 Q 205.386 48.74 205.501 48.454 L 205.501 48.454 L 205.501 48.454 Q 206.131 47.48 206.532 46.707 L 206.532 46.707 L 206.532 46.707 Q 206.933 45.934 207.334 45.132 L 207.334 45.132 L 207.334 45.132 Q 207.792 44.159 208.278 43.243 L 208.278 43.243 L 208.278 43.243 Q 208.765 42.326 209.51 41.353 L 209.51 41.353 L 210.426 40.952 L 210.426 40.952 Q 210.598 40.895 210.827 40.809 L 210.827 40.809 L 210.827 40.809 Q 211.056 40.723 211.342 40.723 L 211.342 40.723 L 212.201 40.837 L 212.201 40.837 Q 213.805 40.093 215.007 38.747 L 215.007 38.747 L 215.007 38.747 Q 216.21 37.401 217.47 35.512 L 217.47 35.512 L 218.042 34.71 L 218.787 35.168 L 218.787 35.168 Q 219.073 35.34 219.588 35.483 L 219.588 35.483 L 219.588 35.483 Q 220.104 35.626 220.677 35.798 L 220.677 35.798 L 220.677 35.798 Q 221.707 36.027 222.624 36.313 L 222.624 36.313 L 222.624 36.313 Q 223.54 36.6 224.112 37.172 L 224.112 37.172 L 224.112 37.172 Q 224.456 38.089 224.513 38.547 L 224.513 38.547 L 224.513 38.547 Q 224.571 39.005 224.685 39.463 L 224.685 39.463 L 224.685 39.463 Q 224.857 40.437 225 41.41 L 225 41.41 L 225 41.41 Q 225.143 42.384 225.201 43.586 L 225.201 43.586 L 225.201 43.586 Q 225.487 44.56 225.687 45.505 L 225.687 45.505 L 225.687 45.505 Q 225.888 46.45 226.06 47.423 L 226.06 47.423 L 226.06 47.423 Q 226.346 48.797 226.632 50.086 L 226.632 50.086 L 226.632 50.086 Q 226.919 51.374 227.377 52.52 L 227.377 52.52 L 227.377 52.52 Q 227.835 52.52 227.949 52.577 L 227.949 52.577 L 227.949 52.577 Q 228.236 52.462 228.551 52.405 L 228.551 52.405 L 228.551 52.405 Q 228.866 52.348 229.266 52.291 L 229.266 52.291 L 229.896 52.233 L 230.125 52.806 L 230.125 52.806 Q 230.183 53.092 230.698 53.379 L 230.698 53.379 L 230.698 53.379 Q 231.443 53.436 231.786 53.694 L 231.786 53.694 L 231.786 53.694 Q 232.13 53.951 232.416 54.238 L 232.416 54.238 L 232.416 54.238 Q 232.645 54.467 232.874 54.581 L 232.874 54.581 L 233.733 54.925 L 233.275 55.784 L 233.275 55.784 Q 232.702 56.815 231.643 57.76 L 231.643 57.76 L 231.643 57.76 Q 230.584 58.704 229.266 59.334 L 229.266 59.334 L 229.266 59.334 Q 229.324 59.678 229.352 59.993 L 229.352 59.993 L 229.352 59.993 Q 229.381 60.308 229.495 60.651 L 229.495 60.651 L 229.495 60.651 Q 229.667 61.625 229.782 62.656 L 229.782 62.656 L 229.782 62.656 Q 229.896 63.687 229.782 64.775 L 229.782 64.775 Z  M 213.117 55.097 L 213.117 55.097 L 213.117 55.097 Q 214.835 54.982 216.238 54.839 L 216.238 54.839 L 216.238 54.839 Q 217.641 54.696 219.359 54.352 L 219.359 54.352 L 219.359 54.352 Q 218.959 52.634 218.5 50.773 L 218.5 50.773 L 218.5 50.773 Q 218.042 48.912 217.527 47.079 L 217.527 47.079 L 217.183 47.652 L 217.183 47.652 Q 216.038 48.855 214.979 50.344 L 214.979 50.344 L 214.979 50.344 Q 213.919 51.833 213.175 53.15 L 213.175 53.15 L 213.175 53.15 Q 212.831 53.665 212.487 54.18 L 212.487 54.18 L 212.487 54.18 Q 212.144 54.696 211.858 55.211 L 211.858 55.211 L 211.858 55.211 Q 212.201 55.154 212.516 55.154 L 212.516 55.154 L 212.516 55.154 Q 212.831 55.154 213.117 55.097 Z  M 242.667 63.858 L 242.667 63.858 L 242.667 63.858 Q 242.037 66.149 241.55 67.323 L 241.55 67.323 L 241.55 67.323 Q 241.063 68.497 240.09 69.757 L 240.09 69.757 L 240.09 69.757 Q 239.345 69.642 239.059 69.929 L 239.059 69.929 L 239.059 69.929 Q 238.773 70.215 238.429 70.444 L 238.429 70.444 L 238.429 70.444 Q 237.914 70.558 237.685 70.444 L 237.685 70.444 L 237.685 70.444 Q 237.455 70.329 237.284 70.186 L 237.284 70.186 L 237.284 70.186 Q 237.112 70.043 236.854 69.9 L 236.854 69.9 L 236.854 69.9 Q 236.596 69.757 236.081 69.757 L 236.081 69.757 L 236.081 69.757 Q 235.967 69.299 235.823 68.898 L 235.823 68.898 L 235.823 68.898 Q 235.68 68.497 235.05 68.611 L 235.05 68.611 L 235.05 68.611 Q 235.165 68.153 235.108 67.838 L 235.108 67.838 L 235.108 67.838 Q 235.05 67.523 234.964 67.266 L 234.964 67.266 L 234.964 67.266 Q 234.878 67.008 234.821 66.75 L 234.821 66.75 L 234.821 66.75 Q 234.764 66.493 234.878 66.092 L 234.878 66.092 L 234.878 66.092 Q 234.592 66.092 234.42 65.691 L 234.42 65.691 L 234.42 65.691 Q 234.249 65.29 234.019 64.889 L 234.019 64.889 L 234.019 64.889 Q 234.191 63.858 234.363 62.942 L 234.363 62.942 L 234.363 62.942 Q 234.535 62.026 234.793 61.224 L 234.793 61.224 L 234.793 61.224 Q 235.05 60.422 235.222 59.621 L 235.222 59.621 L 235.222 59.621 Q 235.394 58.819 235.05 57.96 L 235.05 57.96 L 235.05 57.96 Q 235.279 58.132 235.394 57.874 L 235.394 57.874 L 235.394 57.874 Q 235.508 57.616 235.566 57.187 L 235.566 57.187 L 235.566 57.187 Q 235.623 56.757 235.623 56.328 L 235.623 56.328 L 235.623 56.328 Q 235.623 55.898 235.566 55.612 L 235.566 55.612 L 235.566 55.612 Q 236.138 54.123 236.511 52.548 L 236.511 52.548 L 236.511 52.548 Q 236.883 50.974 237.198 49.427 L 237.198 49.427 L 237.198 49.427 Q 237.513 47.881 237.856 46.392 L 237.856 46.392 L 237.856 46.392 Q 238.2 44.903 238.773 43.643 L 238.773 43.643 L 238.773 43.643 Q 239.402 43.529 240.176 43.787 L 240.176 43.787 L 240.176 43.787 Q 240.949 44.044 241.12 44.445 L 241.12 44.445 L 241.12 44.445 Q 242.609 43.3 243.755 41.668 L 243.755 41.668 L 243.755 41.668 Q 244.9 40.036 246.103 38.49 L 246.103 38.49 L 246.103 38.49 Q 247.305 36.943 248.765 35.741 L 248.765 35.741 L 248.765 35.741 Q 250.226 34.538 252.459 34.309 L 252.459 34.309 L 252.459 34.309 Q 253.604 35.168 255.007 36.056 L 255.007 36.056 L 255.007 36.056 Q 256.41 36.943 257.327 38.375 L 257.327 38.375 L 257.327 38.375 Q 257.785 38.604 258.1 38.862 L 258.1 38.862 L 258.1 38.862 Q 258.415 39.119 258.873 39.406 L 258.873 39.406 L 258.873 40.093 L 258.873 40.093 Q 259.56 40.723 259.99 41.553 L 259.99 41.553 L 259.99 41.553 Q 260.419 42.384 260.763 43.329 L 260.763 43.329 L 260.763 43.329 Q 261.106 44.273 261.45 45.218 L 261.45 45.218 L 261.45 45.218 Q 261.793 46.163 262.252 47.022 L 262.252 47.022 L 262.252 47.022 Q 262.137 47.308 262.137 47.509 L 262.137 47.509 L 262.137 47.509 Q 262.137 47.709 262.223 47.938 L 262.223 47.938 L 262.223 47.938 Q 262.309 48.167 262.366 48.397 L 262.366 48.397 L 262.366 48.397 Q 262.423 48.626 262.366 49.026 L 262.366 49.026 L 262.366 49.026 Q 262.194 51.546 260.734 53.092 L 260.734 53.092 L 260.734 53.092 Q 259.274 54.639 257.212 55.641 L 257.212 55.641 L 257.212 55.641 Q 255.151 56.643 252.803 57.33 L 252.803 57.33 L 252.803 57.33 Q 250.455 58.017 248.565 58.819 L 248.565 58.819 L 248.565 58.819 Q 248.565 59.048 248.765 59.048 L 248.765 59.048 L 248.765 59.048 Q 248.966 59.048 248.909 59.334 L 248.909 59.334 L 248.909 59.334 Q 250.283 60.193 251.085 60.709 L 251.085 60.709 L 251.085 60.709 Q 251.886 61.224 252.602 61.568 L 252.602 61.568 L 252.602 61.568 Q 253.318 61.911 254.148 62.169 L 254.148 62.169 L 254.148 62.169 Q 254.979 62.427 256.468 62.77 L 256.468 62.77 L 256.468 62.77 Q 257.957 63.114 258.787 63.314 L 258.787 63.314 L 258.787 63.314 Q 259.617 63.515 260.305 63.658 L 260.305 63.658 L 260.305 63.658 Q 260.992 63.801 261.708 63.887 L 261.708 63.887 L 261.708 63.887 Q 262.423 63.973 263.741 64.087 L 263.741 64.087 L 263.741 64.087 Q 264.256 64.603 264.628 65.319 L 264.628 65.319 L 264.628 65.319 Q 265 66.034 265.115 66.75 L 265.115 66.75 L 265.115 66.75 Q 265.229 67.466 265.172 68.125 L 265.172 68.125 L 265.172 68.125 Q 265.115 68.783 264.771 69.184 L 264.771 69.184 L 264.771 69.184 Q 264.829 69.356 265.029 69.327 L 265.029 69.327 L 265.029 69.327 Q 265.229 69.299 265.459 69.356 L 265.459 69.356 L 265.459 69.356 Q 265.115 69.585 264.886 69.929 L 264.886 69.929 L 264.886 69.929 Q 264.657 70.272 264.428 70.616 L 264.428 70.616 L 264.428 70.616 Q 264.199 70.959 263.912 71.217 L 263.912 71.217 L 263.912 71.217 Q 263.626 71.475 263.111 71.532 L 263.111 71.532 L 263.111 71.532 Q 261.335 72.219 258.644 71.618 L 258.644 71.618 L 258.644 71.618 Q 255.952 71.017 251.829 69.413 L 251.829 69.413 L 251.829 69.413 Q 249.768 68.611 248.479 68.01 L 248.479 68.01 L 248.479 68.01 Q 247.191 67.409 246.246 66.808 L 246.246 66.808 L 246.246 66.808 Q 245.301 66.206 244.528 65.519 L 244.528 65.519 L 244.528 65.519 Q 243.755 64.832 242.667 63.858 Z  M 250.856 44.216 L 250.856 44.216 L 250.856 44.216 Q 250.226 45.132 249.453 45.877 L 249.453 45.877 L 249.453 45.877 Q 248.68 46.621 247.964 47.394 L 247.964 47.394 L 247.964 47.394 Q 247.248 48.167 246.675 49.112 L 246.675 49.112 L 246.675 49.112 Q 246.103 50.057 245.874 51.317 L 245.874 51.317 L 245.874 51.317 Q 247.878 51.088 250.054 50.2 L 250.054 50.2 L 250.054 50.2 Q 252.23 49.313 254.177 48.511 L 254.177 48.511 L 254.177 48.511 Q 253.948 46.736 252.946 45.648 L 252.946 45.648 L 252.946 45.648 Q 251.944 44.56 250.856 44.216 Z  M 291.056 71.131 L 289.281 67.008 L 289.281 67.008 Q 285.788 68.554 281.837 69.528 L 281.837 69.528 L 281.837 69.528 Q 277.885 70.501 273.418 70.788 L 273.418 70.788 L 273.418 70.788 Q 271.013 70.1 269.066 68.984 L 269.066 68.984 L 269.066 68.984 Q 267.119 67.867 265.802 66.034 L 265.802 66.034 L 265.802 66.034 Q 265.859 65.233 265.745 64.631 L 265.745 64.631 L 265.745 64.631 Q 265.63 64.03 265.487 63.515 L 265.487 63.515 L 265.487 63.515 Q 265.344 62.999 265.315 62.427 L 265.315 62.427 L 265.315 62.427 Q 265.287 61.854 265.459 61.11 L 265.459 61.11 L 265.459 61.11 Q 265.344 60.651 265.172 60.251 L 265.172 60.251 L 265.172 60.251 Q 265 59.85 264.886 59.392 L 264.886 59.392 L 264.886 59.392 Q 265 57.216 265.745 55.469 L 265.745 55.469 L 265.745 55.469 Q 266.489 53.722 267.577 52.291 L 267.577 52.291 L 267.577 52.291 Q 268.665 50.859 269.954 49.628 L 269.954 49.628 L 269.954 49.628 Q 271.242 48.397 272.445 47.251 L 272.445 47.251 L 272.445 47.251 Q 272.731 47.538 272.846 47.337 L 272.846 47.337 L 272.846 47.337 Q 272.96 47.137 273.418 47.251 L 273.418 47.251 L 273.418 47.251 Q 273.418 46.965 273.676 46.535 L 273.676 46.535 L 273.676 46.535 Q 273.934 46.106 274.277 45.734 L 274.277 45.734 L 274.277 45.734 Q 274.621 45.361 275.051 45.132 L 275.051 45.132 L 275.051 45.132 Q 275.48 44.903 275.881 44.961 L 275.881 44.961 L 275.881 44.961 Q 276.396 44.044 277.37 43.386 L 277.37 43.386 L 277.37 43.386 Q 278.343 42.727 279.346 42.04 L 279.346 42.04 L 279.346 42.04 Q 280.348 41.353 281.149 40.551 L 281.149 40.551 L 281.149 40.551 Q 281.951 39.749 282.123 38.547 L 282.123 38.547 L 283.096 38.547 L 283.096 38.547 Q 282.467 37.631 282.524 36.714 L 282.524 36.714 L 282.524 36.714 Q 282.581 35.798 283.125 35.197 L 283.125 35.197 L 283.125 35.197 Q 283.669 34.595 284.643 34.452 L 284.643 34.452 L 284.643 34.452 Q 285.616 34.309 286.876 34.939 L 286.876 34.939 L 286.876 34.939 Q 287.449 35.054 287.62 34.739 L 287.62 34.739 L 287.62 34.739 Q 287.792 34.424 288.193 34.366 L 288.193 34.366 L 288.193 34.366 Q 290.369 35.34 292.116 36.714 L 292.116 36.714 L 292.116 36.714 Q 293.862 38.089 295.237 39.864 L 295.237 39.864 L 295.237 39.864 Q 295.122 40.15 294.807 40.208 L 294.807 40.208 L 294.807 40.208 Q 294.492 40.265 294.836 40.608 L 294.836 40.608 L 294.836 40.608 Q 296.497 42.67 297.785 44.989 L 297.785 44.989 L 297.785 44.989 Q 299.074 47.308 300.162 49.885 L 300.162 49.885 L 300.162 49.885 Q 300.448 51.833 300.333 53.751 L 300.333 53.751 L 300.333 53.751 Q 300.219 55.669 299.761 57.845 L 299.761 57.845 L 299.761 57.845 Q 298.959 59.506 297.757 60.737 L 297.757 60.737 L 297.757 60.737 Q 296.554 61.969 295.58 63.4 L 295.58 63.4 L 296.439 65.29 L 296.439 65.29 Q 296.382 65.634 296.583 66.092 L 296.583 66.092 L 296.583 66.092 Q 296.783 66.55 296.983 67.037 L 296.983 67.037 L 296.983 67.037 Q 297.184 67.523 297.298 67.953 L 297.298 67.953 L 297.298 67.953 Q 297.413 68.382 297.241 68.669 L 297.241 68.669 L 297.241 68.669 Q 297.413 68.955 297.871 68.841 L 297.871 68.841 L 297.871 68.841 Q 297.699 68.898 297.585 69.213 L 297.585 69.213 L 297.585 69.213 Q 297.47 69.528 298.043 69.413 L 298.043 69.413 L 298.043 69.413 Q 297.928 69.929 297.613 70.587 L 297.613 70.587 L 297.613 70.587 Q 297.298 71.246 296.754 71.847 L 296.754 71.847 L 296.754 71.847 Q 296.21 72.448 295.466 72.878 L 295.466 72.878 L 295.466 72.878 Q 294.721 73.307 293.862 73.307 L 293.862 73.307 L 293.862 73.307 Q 292.889 72.792 292.345 72.334 L 292.345 72.334 L 292.345 72.334 Q 291.801 71.876 291.056 71.131 L 291.056 71.131 Z  M 278.114 53.379 L 278.114 53.379 L 278.114 53.379 Q 276.053 55.097 274.335 57.387 L 274.335 57.387 L 274.335 57.387 Q 272.617 59.678 271.586 62.427 L 271.586 62.427 L 271.586 62.427 Q 272.044 62.656 272.645 62.713 L 272.645 62.713 L 272.645 62.713 Q 273.247 62.77 273.762 62.885 L 273.762 62.885 L 273.762 62.885 Q 276.511 62.083 279.403 61.396 L 279.403 61.396 L 279.403 61.396 Q 282.295 60.709 284.986 59.735 L 284.986 59.735 L 284.986 59.735 Q 283.898 58.418 282.925 57.13 L 282.925 57.13 L 282.925 57.13 Q 281.951 55.841 281.321 54.639 L 281.321 54.639 L 281.321 54.639 Q 281.493 54.352 281.608 53.951 L 281.608 53.951 L 281.608 53.951 Q 281.722 53.55 281.894 53.178 L 281.894 53.178 L 281.894 53.178 Q 282.066 52.806 282.409 52.52 L 282.409 52.52 L 282.409 52.52 Q 282.753 52.233 283.325 52.233 L 283.325 52.233 L 283.325 52.233 Q 284.184 52.577 285.358 52.634 L 285.358 52.634 L 285.358 52.634 Q 286.532 52.692 287.506 52.863 L 287.506 52.863 L 287.506 52.863 Q 288.479 53.55 289.167 54.495 L 289.167 54.495 L 289.167 54.495 Q 289.854 55.44 290.598 56.414 L 290.598 56.414 L 290.598 56.414 Q 291.629 55.44 292.374 54.295 L 292.374 54.295 L 292.374 54.295 Q 293.118 53.15 293.576 51.661 L 293.576 51.661 L 293.576 51.661 Q 293.29 50.916 292.86 49.943 L 292.86 49.943 L 292.86 49.943 Q 292.431 48.969 291.858 48.082 L 291.858 48.082 L 291.858 48.082 Q 291.285 47.194 290.598 46.478 L 290.598 46.478 L 290.598 46.478 Q 289.911 45.762 289.109 45.476 L 289.109 45.476 L 289.109 45.476 Q 288.708 45.419 288.594 45.619 L 288.594 45.619 L 288.594 45.619 Q 288.479 45.82 288.021 45.705 L 288.021 45.705 L 288.021 45.705 Q 285.444 47.538 282.867 49.341 L 282.867 49.341 L 282.867 49.341 Q 280.29 51.145 278.114 53.379 Z  M 335.037 37.23 L 335.037 37.23 L 335.037 37.23 Q 335.151 38.49 335.438 39.406 L 335.438 39.406 L 335.438 39.406 Q 335.724 40.322 336.067 41.181 L 336.067 41.181 L 336.067 41.181 Q 336.354 41.983 336.611 42.756 L 336.611 42.756 L 336.611 42.756 Q 336.869 43.529 336.984 44.617 L 336.984 44.617 L 336.984 44.617 Q 336.526 46.106 336.325 47.366 L 336.325 47.366 L 336.325 47.366 Q 336.125 48.626 335.896 50 L 335.896 50 L 335.896 50 Q 334.979 52.004 334.12 53.55 L 334.12 53.55 L 334.12 53.55 Q 333.261 55.097 332.746 56.242 L 332.746 56.242 L 332.746 56.242 Q 332.46 56.528 332.259 56.901 L 332.259 56.901 L 332.259 56.901 Q 332.059 57.273 331.83 57.674 L 331.83 57.674 L 331.83 57.674 Q 331.715 57.845 331.543 58.189 L 331.543 58.189 L 331.543 58.189 Q 331.372 58.533 331.257 58.647 L 331.257 58.647 L 330.112 58.246 L 329.883 59.678 L 329.081 59.907 L 328.508 60.594 L 328.508 60.594 Q 327.42 62.484 326.218 63.772 L 326.218 63.772 L 326.218 63.772 Q 325.015 65.061 323.498 66.063 L 323.498 66.063 L 323.498 66.063 Q 321.98 67.065 320.062 67.924 L 320.062 67.924 L 320.062 67.924 Q 318.143 68.783 315.738 69.814 L 315.738 69.814 L 315.738 69.814 Q 314.765 69.699 314.049 69.671 L 314.049 69.671 L 314.049 69.671 Q 313.333 69.642 312.703 69.585 L 312.703 69.585 L 312.703 69.585 Q 311.615 69.585 310.011 69.413 L 310.011 69.413 L 310.011 69.413 Q 309.84 68.955 309.496 68.783 L 309.496 68.783 L 309.496 68.783 Q 309.152 68.611 308.866 68.611 L 308.866 68.611 L 308.866 68.611 Q 307.893 68.153 307.406 67.266 L 307.406 67.266 L 307.406 67.266 Q 306.919 66.378 306.461 65.347 L 306.461 65.347 L 306.461 65.347 Q 306.175 64.717 305.888 64.173 L 305.888 64.173 L 305.888 64.173 Q 305.602 63.629 305.258 63.057 L 305.258 63.057 L 306.232 62.77 L 304.972 61.396 L 304.972 61.396 Q 304.858 61.224 304.686 61.081 L 304.686 61.081 L 304.686 61.081 Q 304.514 60.938 304.399 60.766 L 304.399 60.766 L 304.342 59.85 L 304.342 59.85 Q 304.17 55.898 304.199 52.606 L 304.199 52.606 L 304.199 52.606 Q 304.228 49.313 305.087 46.736 L 305.087 46.736 L 305.087 46.106 L 305.087 46.106 Q 305.258 44.846 305.43 44.016 L 305.43 44.016 L 305.43 44.016 Q 305.602 43.185 305.716 42.441 L 305.716 42.441 L 305.716 42.441 Q 305.888 41.181 306.232 40.093 L 306.232 40.093 L 306.232 40.093 Q 307.034 39.921 307.434 39.434 L 307.434 39.434 L 307.434 39.434 Q 307.835 38.948 308.122 38.547 L 308.122 38.547 L 308.122 38.547 Q 308.923 38.49 309.21 38.776 L 309.21 38.776 L 309.21 38.776 Q 309.496 39.062 309.782 39.692 L 309.782 39.692 L 309.782 39.692 Q 310.069 40.208 310.498 40.837 L 310.498 40.837 L 310.498 40.837 Q 310.928 41.467 311.787 41.811 L 311.787 41.811 L 311.787 41.811 Q 311.901 42.269 312.102 42.756 L 312.102 42.756 L 312.102 42.756 Q 312.302 43.243 312.531 43.815 L 312.531 43.815 L 312.531 43.815 Q 312.989 44.789 313.362 45.848 L 313.362 45.848 L 313.362 45.848 Q 313.734 46.908 313.791 47.881 L 313.791 47.881 L 313.791 47.881 Q 313.218 48.969 312.903 50.401 L 312.903 50.401 L 312.903 50.401 Q 312.588 51.833 312.503 53.293 L 312.503 53.293 L 312.503 53.293 Q 312.417 54.753 312.56 56.099 L 312.56 56.099 L 312.56 56.099 Q 312.703 57.445 313.047 58.361 L 313.047 58.361 L 313.39 59.105 L 314.364 58.991 L 314.364 58.991 Q 316.082 58.533 317.485 57.989 L 317.485 57.989 L 317.485 57.989 Q 318.888 57.445 320.09 56.7 L 320.09 56.7 L 320.09 56.7 Q 321.293 55.956 322.381 54.954 L 322.381 54.954 L 322.381 54.954 Q 323.469 53.951 324.672 52.634 L 324.672 52.634 L 324.672 52.634 Q 325.874 51.317 326.762 49.628 L 326.762 49.628 L 326.762 49.628 Q 327.649 47.938 328.251 46.106 L 328.251 46.106 L 328.251 46.106 Q 328.852 44.273 329.167 42.47 L 329.167 42.47 L 329.167 42.47 Q 329.482 40.666 329.596 39.062 L 329.596 39.062 L 329.596 39.062 Q 330.57 38.719 330.57 37.688 L 330.57 37.688 L 330.455 37.058 L 330.455 37.058 Q 330.226 36.714 330.455 36.256 L 330.455 36.256 L 330.455 36.256 Q 330.799 35.168 332.059 34.595 L 332.059 34.595 L 332.059 34.595 Q 332.975 35.168 333.691 35.855 L 333.691 35.855 L 333.691 35.855 Q 334.407 36.542 335.037 37.23 Z  M 367.506 37.573 L 367.506 37.573 L 367.506 37.573 Q 367.564 37.974 367.535 38.175 L 367.535 38.175 L 367.535 38.175 Q 367.506 38.375 367.478 38.547 L 367.478 38.547 L 367.478 38.547 Q 367.449 38.719 367.449 38.919 L 367.449 38.919 L 367.449 38.919 Q 367.449 39.119 367.564 39.52 L 367.564 39.52 L 367.564 39.52 Q 366.361 41.467 364.786 42.183 L 364.786 42.183 L 364.786 42.183 Q 363.212 42.899 361.379 43.214 L 361.379 43.214 L 361.379 43.214 Q 359.547 43.529 357.628 43.873 L 357.628 43.873 L 357.628 43.873 Q 355.71 44.216 353.82 45.361 L 353.82 45.361 L 353.82 45.361 Q 353.075 45.075 352.474 45.361 L 352.474 45.361 L 352.474 45.361 Q 351.873 45.648 350.728 45.533 L 350.728 45.533 L 350.728 45.533 Q 350.384 45.877 349.869 46.02 L 349.869 46.02 L 349.869 46.02 Q 349.353 46.163 348.838 46.335 L 348.838 46.335 L 348.838 46.335 Q 349.067 46.85 349.038 47.394 L 349.038 47.394 L 349.038 47.394 Q 349.01 47.938 349.181 48.282 L 349.181 48.282 L 349.181 48.282 Q 351.186 48.454 353.619 48.225 L 353.619 48.225 L 353.619 48.225 Q 356.053 47.996 358.401 47.938 L 358.401 47.938 L 358.401 47.938 Q 358.458 48.225 358.344 48.311 L 358.344 48.311 L 358.344 48.311 Q 358.229 48.397 358.287 48.626 L 358.287 48.626 L 358.287 48.626 Q 358.688 48.912 359.088 49.341 L 359.088 49.341 L 359.088 49.341 Q 359.489 49.771 359.89 50.172 L 359.89 50.172 L 359.89 50.172 Q 360.291 50.573 360.72 50.83 L 360.72 50.83 L 360.72 50.83 Q 361.15 51.088 361.723 51.031 L 361.723 51.031 L 361.723 51.031 Q 361.952 51.489 362.038 52.033 L 362.038 52.033 L 362.038 52.033 Q 362.123 52.577 361.894 53.15 L 361.894 53.15 L 361.894 53.15 Q 360.978 53.78 360.062 54.438 L 360.062 54.438 L 360.062 54.438 Q 359.146 55.097 358.144 55.612 L 358.144 55.612 L 358.144 55.612 Q 357.141 56.127 356.025 56.442 L 356.025 56.442 L 356.025 56.442 Q 354.908 56.757 353.534 56.7 L 353.534 56.7 L 353.534 56.7 Q 353.247 56.7 353.104 56.7 L 353.104 56.7 L 353.104 56.7 Q 352.961 56.7 352.732 56.528 L 352.732 56.528 L 352.732 56.528 Q 352.274 56.815 351.443 56.7 L 351.443 56.7 L 351.443 56.7 Q 350.613 56.586 350.155 56.872 L 350.155 56.872 L 350.155 56.872 Q 349.525 56.586 348.637 56.614 L 348.637 56.614 L 348.637 56.614 Q 347.75 56.643 347.063 56.414 L 347.063 56.414 L 347.063 56.414 Q 346.146 57.616 345.402 58.991 L 345.402 58.991 L 345.402 58.991 Q 344.657 60.365 344.085 61.911 L 344.085 61.911 L 344.085 61.911 Q 346.032 62.198 347.32 62.14 L 347.32 62.14 L 347.32 62.14 Q 348.609 62.083 349.754 61.94 L 349.754 61.94 L 349.754 61.94 Q 350.899 61.797 352.102 61.654 L 352.102 61.654 L 352.102 61.654 Q 353.305 61.51 355.137 61.568 L 355.137 61.568 L 355.137 61.568 Q 356.282 60.938 357.857 60.737 L 357.857 60.737 L 357.857 60.737 Q 359.432 60.537 360.749 60.079 L 360.749 60.079 L 360.749 60.079 Q 361.207 60.251 361.551 60.68 L 361.551 60.68 L 361.551 60.68 Q 361.894 61.11 362.209 61.482 L 362.209 61.482 L 362.209 61.482 Q 362.524 61.854 362.868 62.14 L 362.868 62.14 L 362.868 62.14 Q 363.212 62.427 363.727 62.369 L 363.727 62.369 L 363.727 62.369 Q 363.956 62.599 364.042 62.913 L 364.042 62.913 L 364.042 62.913 Q 364.128 63.228 364.185 63.515 L 364.185 63.515 L 364.185 63.515 Q 364.242 63.801 364.385 64.002 L 364.385 64.002 L 364.385 64.002 Q 364.529 64.202 364.872 64.145 L 364.872 64.145 L 364.872 64.145 Q 364.013 66.034 362.897 67.037 L 362.897 67.037 L 362.897 67.037 Q 361.78 68.039 360.348 68.554 L 360.348 68.554 L 360.348 68.554 Q 358.917 69.07 357.17 69.356 L 357.17 69.356 L 357.17 69.356 Q 355.423 69.642 353.305 70.043 L 353.305 70.043 L 353.305 70.043 Q 352.789 70.158 352.446 70.014 L 352.446 70.014 L 352.446 70.014 Q 352.102 69.871 351.644 69.871 L 351.644 69.871 L 351.644 69.871 Q 350.327 70.158 348.494 70.387 L 348.494 70.387 L 348.494 70.387 Q 346.662 70.616 344.772 70.558 L 344.772 70.558 L 344.772 70.558 Q 342.882 70.501 341.164 70.072 L 341.164 70.072 L 341.164 70.072 Q 339.446 69.642 338.358 68.554 L 338.358 68.554 L 338.358 68.554 Q 337.9 68.153 337.757 67.609 L 337.757 67.609 L 337.757 67.609 Q 337.614 67.065 336.984 66.779 L 336.984 66.779 L 336.984 66.779 Q 336.926 66.034 336.755 65.118 L 336.755 65.118 L 336.755 65.118 Q 336.583 64.202 336.411 63.2 L 336.411 63.2 L 336.411 63.2 Q 336.239 62.198 336.153 61.224 L 336.153 61.224 L 336.153 61.224 Q 336.067 60.251 336.239 59.449 L 336.239 59.449 L 336.239 59.449 Q 336.411 58.59 336.955 57.903 L 336.955 57.903 L 336.955 57.903 Q 337.499 57.216 337.327 56.414 L 337.327 56.414 L 337.327 56.414 Q 337.614 56.357 337.671 56.099 L 337.671 56.099 L 337.671 56.099 Q 337.728 55.841 338.129 55.898 L 338.129 55.898 L 338.129 55.898 Q 338.473 54.868 338.873 53.951 L 338.873 53.951 L 338.873 53.951 Q 339.274 53.035 339.704 52.176 L 339.704 52.176 L 339.704 52.176 Q 340.133 51.317 340.563 50.429 L 340.563 50.429 L 340.563 50.429 Q 340.992 49.542 341.393 48.454 L 341.393 48.454 L 341.393 48.454 Q 340.591 47.709 340.219 46.822 L 340.219 46.822 L 340.219 46.822 Q 339.847 45.934 339.675 45.046 L 339.675 45.046 L 339.675 45.046 Q 339.503 44.159 339.389 43.214 L 339.389 43.214 L 339.389 43.214 Q 339.274 42.269 338.988 41.296 L 338.988 41.296 L 338.988 41.296 Q 339.561 40.437 340.391 39.893 L 340.391 39.893 L 340.391 39.893 Q 341.221 39.349 342.195 39.005 L 342.195 39.005 L 342.195 39.005 Q 343.168 38.661 344.314 38.432 L 344.314 38.432 L 344.314 38.432 Q 345.459 38.203 346.719 37.917 L 346.719 37.917 L 346.719 37.917 Q 349.01 37.172 350.813 36.772 L 350.813 36.772 L 350.813 36.772 Q 352.617 36.371 354.364 36.113 L 354.364 36.113 L 354.364 36.113 Q 356.111 35.855 358 35.626 L 358 35.626 L 358 35.626 Q 359.89 35.397 362.295 34.939 L 362.295 34.939 L 362.295 34.939 Q 362.811 35.454 363.269 35.454 L 363.269 35.454 L 363.269 35.454 Q 363.498 34.939 363.813 35.139 L 363.813 35.139 L 363.813 35.139 Q 364.128 35.34 364.071 34.825 L 364.071 34.825 L 364.071 34.825 Q 364.643 35.798 365.531 36.457 L 365.531 36.457 L 365.531 36.457 Q 366.418 37.115 367.506 37.573 Z  M 372.317 72.047 L 372.317 72.047 L 372.317 72.047 Q 372.031 71.933 371.687 71.818 L 371.687 71.818 L 371 70.558 L 370.083 71.246 L 370.083 71.246 Q 369.683 71.017 369.454 70.816 L 369.454 70.816 L 369.454 70.816 Q 369.224 70.616 368.938 70.329 L 368.938 70.329 L 368.938 70.329 Q 368.308 69.871 367.85 69.385 L 367.85 69.385 L 367.85 69.385 Q 367.392 68.898 367.335 68.44 L 367.335 68.44 L 367.277 67.867 L 366.705 67.752 L 366.705 67.752 Q 366.418 66.951 366.247 66.579 L 366.247 66.579 L 366.247 66.579 Q 366.075 66.206 365.674 65.977 L 365.674 65.977 L 365.674 65.977 Q 365.33 63.114 365.903 61.195 L 365.903 61.195 L 365.903 61.195 Q 366.476 59.277 367.621 57.101 L 367.621 57.101 L 367.621 57.101 Q 368.308 56.872 368.852 56.471 L 368.852 56.471 L 368.852 56.471 Q 369.396 56.07 369.854 55.669 L 369.854 55.669 L 369.854 55.669 Q 370.313 55.268 370.771 54.954 L 370.771 54.954 L 370.771 54.954 Q 371.229 54.639 371.63 54.581 L 371.63 54.581 L 372.145 54.295 L 372.145 54.295 Q 373.119 53.15 374.493 52.262 L 374.493 52.262 L 374.493 52.262 Q 375.867 51.374 377.356 50.458 L 377.356 50.458 L 377.356 50.458 Q 378.559 49.771 379.79 48.998 L 379.79 48.998 L 379.79 48.998 Q 381.021 48.225 381.995 47.308 L 381.995 47.308 L 381.995 47.308 Q 382.453 47.366 382.797 47.137 L 382.797 47.137 L 382.797 47.137 Q 383.026 46.85 383.026 46.392 L 383.026 46.392 L 383.026 46.392 Q 383.14 46.278 383.283 46.192 L 383.283 46.192 L 383.283 46.192 Q 383.426 46.106 383.541 45.991 L 383.541 45.991 L 383.541 45.991 Q 383.942 45.705 384.629 45.304 L 384.629 45.304 L 384.629 45.304 Q 385.316 44.903 385.545 44.273 L 385.545 44.273 L 386.805 43.071 L 385.087 43.128 L 385.087 43.128 Q 383.77 43.185 382.31 43.3 L 382.31 43.3 L 382.31 43.3 Q 380.849 43.414 379.819 43.529 L 379.819 43.529 L 379.819 43.529 Q 378.96 43.643 378.043 43.672 L 378.043 43.672 L 378.043 43.672 Q 377.127 43.701 376.039 43.758 L 376.039 43.758 L 376.039 43.758 Q 374.264 42.613 373.491 40.351 L 373.491 40.351 L 373.491 40.351 Q 372.718 38.089 373.405 35.913 L 373.405 35.913 L 373.405 35.913 Q 373.806 35.855 374.092 35.712 L 374.092 35.712 L 374.092 35.712 Q 374.378 35.569 374.665 35.454 L 374.665 35.454 L 374.665 35.454 Q 375.18 35.397 375.352 35.454 L 375.352 35.454 L 375.352 35.454 Q 375.524 35.512 375.81 35.512 L 375.81 35.512 L 375.81 35.512 Q 377.414 35.225 378.473 35.139 L 378.473 35.139 L 378.473 35.139 Q 379.532 35.054 380.449 35.054 L 380.449 35.054 L 380.449 35.054 Q 381.422 35.054 382.338 35.139 L 382.338 35.139 L 382.338 35.139 Q 383.255 35.225 384.114 35.512 L 384.114 35.512 L 384.114 35.512 Q 386.118 35.512 388.18 35.34 L 388.18 35.34 L 388.18 35.34 Q 390.241 35.168 392.417 35.626 L 392.417 35.626 L 392.417 35.626 Q 393.963 35.111 395.481 35.34 L 395.481 35.34 L 395.481 35.34 Q 396.998 35.569 398.144 36.714 L 398.144 36.714 L 398.144 36.714 Q 398.201 37.688 398.631 38.175 L 398.631 38.175 L 398.631 38.175 Q 399.06 38.661 399.747 38.89 L 399.747 38.89 L 399.747 38.89 Q 400.205 40.551 399.833 41.811 L 399.833 41.811 L 399.833 41.811 Q 399.461 43.071 398.602 44.044 L 398.602 44.044 L 398.602 44.044 Q 397.743 45.018 396.569 45.791 L 396.569 45.791 L 396.569 45.791 Q 395.395 46.564 394.25 47.251 L 394.25 47.251 L 394.25 47.251 Q 393.906 47.767 393.419 48.082 L 393.419 48.082 L 393.419 48.082 Q 392.933 48.397 392.532 48.855 L 392.532 48.855 L 392.532 48.855 Q 390.642 51.26 388.208 53.064 L 388.208 53.064 L 388.208 53.064 Q 385.774 54.868 383.197 56.528 L 383.197 56.528 L 383.197 56.528 Q 381.365 57.731 379.561 58.962 L 379.561 58.962 L 379.561 58.962 Q 377.757 60.193 376.096 61.625 L 376.096 61.625 L 375.524 62.14 L 376.039 62.713 L 376.039 62.713 Q 376.726 63.4 377.643 63.4 L 377.643 63.4 L 377.643 63.4 Q 378.158 63.4 378.645 63.257 L 378.645 63.257 L 378.645 63.257 Q 379.131 63.114 379.59 62.942 L 379.59 62.942 L 379.59 62.942 Q 380.048 62.828 380.391 62.684 L 380.391 62.684 L 380.391 62.684 Q 380.735 62.541 381.021 62.541 L 381.021 62.541 L 381.766 62.541 L 381.766 62.541 Q 382.224 62.255 382.682 62.083 L 382.682 62.083 L 382.682 62.083 Q 383.14 61.911 383.598 61.797 L 383.598 61.797 L 383.598 61.797 Q 384.056 61.682 384.457 61.568 L 384.457 61.568 L 384.457 61.568 Q 384.858 61.453 385.316 61.167 L 385.316 61.167 L 385.316 61.167 Q 386.576 61.167 387.693 60.823 L 387.693 60.823 L 387.693 60.823 Q 388.809 60.48 389.955 60.022 L 389.955 60.022 L 389.955 60.022 Q 390.642 59.735 391.301 59.506 L 391.301 59.506 L 391.301 59.506 Q 391.959 59.277 392.646 59.163 L 392.646 59.163 L 392.646 59.163 Q 392.875 59.449 393.19 59.649 L 393.19 59.649 L 393.19 59.649 Q 393.505 59.85 393.792 60.022 L 393.792 60.022 L 393.792 60.022 Q 394.536 60.48 394.593 60.881 L 394.593 60.881 L 394.765 62.484 L 395.853 61.396 L 395.853 61.396 Q 396.54 61.969 396.598 62.684 L 396.598 62.684 L 396.598 62.684 Q 396.655 63.4 396.426 64.546 L 396.426 64.546 L 396.426 64.546 Q 394.593 66.378 391.845 67.409 L 391.845 67.409 L 391.845 67.409 Q 389.096 68.44 386.003 69.413 L 386.003 69.413 L 386.003 69.413 Q 385.373 69.585 384.715 69.757 L 384.715 69.757 L 384.715 69.757 Q 384.056 69.929 383.426 70.158 L 383.426 70.158 L 383.484 69.184 L 382.224 69.986 L 382.224 69.986 Q 381.995 70.158 381.852 70.329 L 381.852 70.329 L 381.852 70.329 Q 381.708 70.501 381.594 70.673 L 381.594 70.673 L 381.594 70.673 Q 380.105 71.074 379.131 71.246 L 379.131 71.246 L 379.131 71.246 Q 378.158 71.417 377.299 71.589 L 377.299 71.589 L 377.299 71.589 Q 376.325 71.818 375.466 71.962 L 375.466 71.962 L 375.466 71.962 Q 374.607 72.105 373.634 72.105 L 373.634 72.105 L 373.634 72.105 Q 373.348 72.105 373.004 72.105 L 373.004 72.105 L 373.004 72.105 Q 372.66 72.105 372.317 72.047 Z  M 4.841 70.616 L 4.841 70.616 L 4.841 70.616 Q 4.268 70.616 3.066 70.444 L 3.066 70.444 L 3.066 70.444 Q 2.15 69.47 1.434 67.781 L 1.434 67.781 L 1.434 67.781 Q 0.718 66.092 0.346 64.173 L 0.346 64.173 L 0.346 64.173 Q -0.027 62.255 0.002 60.337 L 0.002 60.337 L 0.002 60.337 Q 0.031 58.418 0.661 56.929 L 0.661 56.929 L 0.661 56.929 Q 0.661 56.872 1.205 55.555 L 1.205 55.555 L 1.205 55.555 Q 1.749 54.238 2.608 52.205 L 2.608 52.205 L 2.608 52.205 Q 3.467 50.172 4.555 47.681 L 4.555 47.681 L 4.555 47.681 Q 5.643 45.19 6.731 42.784 L 6.731 42.784 L 6.731 42.784 Q 7.819 40.379 8.821 38.404 L 8.821 38.404 L 8.821 38.404 Q 9.823 36.428 10.568 35.34 L 10.568 35.34 L 10.568 35.34 Q 11.083 34.538 11.513 33.794 L 11.513 33.794 L 11.513 33.794 Q 11.942 33.049 12.343 32.419 L 12.343 32.419 L 12.343 32.419 Q 12.973 31.389 13.517 30.501 L 13.517 30.501 L 13.517 30.501 Q 14.061 29.613 14.719 28.897 L 14.719 28.897 L 14.719 28.897 Q 15.378 28.182 16.18 27.638 L 16.18 27.638 L 16.18 27.638 Q 16.981 27.094 18.127 26.693 L 18.127 26.693 L 18.127 26.693 Q 18.814 26.979 19.329 27.294 L 19.329 27.294 L 19.329 27.294 Q 19.845 27.609 20.246 28.067 L 20.246 28.067 L 20.417 28.869 L 20.417 28.869 Q 20.532 29.27 20.79 29.413 L 20.79 29.413 L 20.79 29.413 Q 21.047 29.556 21.219 29.556 L 21.219 29.556 L 21.219 29.556 Q 21.964 29.728 22.508 29.928 L 22.508 29.928 L 22.508 29.928 Q 23.052 30.129 23.682 30.186 L 23.682 30.186 L 23.682 30.186 Q 23.911 30.53 24.111 30.873 L 24.111 30.873 L 24.111 30.873 Q 24.311 31.217 24.541 31.503 L 24.541 31.503 L 24.541 31.503 Q 25.686 33.164 26.43 34.71 L 26.43 34.71 L 26.43 34.71 Q 27.175 36.256 26.43 38.089 L 26.43 38.089 L 26.488 38.719 L 26.488 38.719 Q 26.774 39.119 26.774 39.463 L 26.774 39.463 L 26.774 39.463 Q 26.774 39.807 26.659 40.437 L 26.659 40.437 L 26.659 40.437 Q 26.602 40.895 26.573 41.439 L 26.573 41.439 L 26.573 41.439 Q 26.545 41.983 26.717 42.613 L 26.717 42.613 L 27.117 43.071 L 27.117 43.071 Q 28.034 43.529 28.893 43.529 L 28.893 43.529 L 28.893 43.529 Q 30.038 43.529 30.954 43.014 L 30.954 43.014 L 30.954 43.014 Q 31.871 42.498 32.672 41.983 L 32.672 41.983 L 32.672 41.983 Q 33.302 41.525 33.846 41.238 L 33.846 41.238 L 33.846 41.238 Q 34.39 40.952 34.906 40.837 L 34.906 40.837 L 34.906 40.837 Q 36.108 39.692 37.11 38.805 L 37.11 38.805 L 37.11 38.805 Q 38.113 37.917 39.201 37.001 L 39.201 37.001 L 39.201 37.001 Q 41.262 35.34 43.209 33.421 L 43.209 33.421 L 43.209 33.421 Q 45.156 31.503 46.302 28.64 L 46.302 28.64 L 46.302 28.64 Q 46.932 28.239 47.733 28.239 L 47.733 28.239 L 47.733 28.239 Q 48.535 28.239 49.337 28.554 L 49.337 28.554 L 49.337 28.554 Q 50.138 28.869 50.94 29.27 L 50.94 29.27 L 50.94 29.27 Q 51.112 29.384 51.255 29.442 L 51.255 29.442 L 51.255 29.442 Q 51.398 29.499 51.57 29.613 L 51.57 29.613 L 51.57 29.613 Q 51.57 30.243 52.085 30.759 L 52.085 30.759 L 52.085 30.759 Q 52.372 30.988 52.486 31.045 L 52.486 31.045 L 52.486 31.045 Q 52.601 31.102 52.715 31.159 L 52.715 31.159 L 52.715 31.159 Q 53.174 31.446 53.488 31.675 L 53.488 31.675 L 53.488 31.675 Q 53.803 31.904 53.975 32.305 L 53.975 32.305 L 53.975 32.305 Q 54.491 33.851 55.693 34.71 L 55.693 34.71 L 55.693 34.71 Q 55.579 35.34 55.75 35.941 L 55.75 35.941 L 55.75 35.941 Q 55.922 36.542 56.151 37.115 L 56.151 37.115 L 56.151 37.115 Q 56.266 37.344 56.323 37.545 L 56.323 37.545 L 56.323 37.545 Q 56.38 37.745 56.495 38.031 L 56.495 38.031 L 55.235 37.917 L 55.407 39.177 L 55.407 39.177 Q 55.579 40.15 55.264 41.353 L 55.264 41.353 L 55.264 41.353 Q 54.949 42.555 54.548 43.243 L 54.548 43.243 L 54.548 43.243 Q 54.662 44.961 54.662 45.963 L 54.662 45.963 L 54.662 45.963 Q 54.662 46.965 54.548 47.824 L 54.548 47.824 L 54.548 47.824 Q 54.433 48.683 54.176 49.456 L 54.176 49.456 L 54.176 49.456 Q 53.918 50.229 53.517 51.088 L 53.517 51.088 L 53.517 51.088 Q 53.746 55.44 52.515 59.048 L 52.515 59.048 L 52.515 59.048 Q 51.284 62.656 49.852 65.805 L 49.852 65.805 L 49.852 65.805 Q 49.68 66.206 49.508 66.55 L 49.508 66.55 L 49.508 66.55 Q 49.337 66.893 49.222 67.237 L 49.222 67.237 L 49.222 67.237 Q 48.592 67.409 48.077 67.638 L 48.077 67.638 L 48.077 67.638 Q 47.561 67.867 47.103 68.153 L 47.103 68.153 L 47.103 68.153 Q 46.473 68.554 45.843 68.812 L 45.843 68.812 L 45.843 68.812 Q 45.214 69.07 44.526 69.07 L 44.526 69.07 L 44.526 69.07 Q 41.778 67.065 41.692 62.14 L 41.692 62.14 L 41.692 62.14 Q 41.606 57.216 43.782 49.599 L 43.782 49.599 L 43.782 49.599 Q 44.183 49.313 44.125 48.74 L 44.125 48.74 L 44.125 48.11 L 43.553 48.053 L 43.553 48.053 Q 43.266 48.053 43.037 48.11 L 43.037 48.11 L 43.037 48.11 Q 42.808 48.167 42.694 48.626 L 42.694 48.626 L 42.694 48.626 Q 40.861 49.943 38.714 51.346 L 38.714 51.346 L 38.714 51.346 Q 36.566 52.749 34.276 53.923 L 34.276 53.923 L 34.276 53.923 Q 31.985 55.097 29.609 55.87 L 29.609 55.87 L 29.609 55.87 Q 27.232 56.643 24.999 56.643 L 24.999 56.643 L 24.999 56.643 Q 19.272 56.643 16.351 50.802 L 16.351 50.802 L 15.836 49.771 L 15.263 50.687 L 15.263 50.687 Q 15.092 50.974 14.662 51.804 L 14.662 51.804 L 14.662 51.804 Q 14.233 52.634 13.803 53.722 L 13.803 53.722 L 13.803 53.722 Q 13.374 54.81 13.059 55.956 L 13.059 55.956 L 13.059 55.956 Q 12.744 57.101 12.858 57.96 L 12.858 57.96 L 12.858 57.96 Q 12.171 58.59 11.513 59.392 L 11.513 59.392 L 11.513 59.392 Q 10.854 60.193 10.568 61.224 L 10.568 61.224 L 10.568 61.224 Q 10.453 61.51 10.51 61.768 L 10.51 61.768 L 10.51 61.768 Q 10.568 62.026 10.682 62.312 L 10.682 62.312 L 10.682 62.312 Q 10.625 62.713 10.453 62.885 L 10.453 62.885 L 10.453 62.885 Q 10.281 63.057 10.052 63.228 L 10.052 63.228 L 10.052 63.228 Q 9.766 63.515 9.48 63.83 L 9.48 63.83 L 9.48 63.83 Q 9.193 64.145 8.964 64.546 L 8.964 64.546 L 8.964 64.546 Q 8.85 64.889 8.792 65.261 L 8.792 65.261 L 8.792 65.261 Q 8.735 65.634 8.678 65.92 L 8.678 65.92 L 8.678 65.92 Q 8.678 66.55 8.506 66.779 L 8.506 66.779 L 8.506 66.779 Q 7.933 67.982 7.504 68.755 L 7.504 68.755 L 7.504 68.755 Q 7.074 69.528 6.674 69.929 L 6.674 69.929 L 6.674 69.929 Q 6.273 70.329 5.843 70.473 L 5.843 70.473 L 5.843 70.473 Q 5.414 70.616 4.841 70.616 Z  M 87.19 64.775 L 87.075 65.004 L 87.075 65.004 Q 86.731 65.977 86.073 66.979 L 86.073 66.979 L 86.073 66.979 Q 85.414 67.982 84.527 68.755 L 84.527 68.755 L 84.527 68.755 Q 83.639 69.528 82.551 70.043 L 82.551 70.043 L 82.551 70.043 Q 81.463 70.558 80.26 70.616 L 80.26 70.616 L 80.26 70.616 Q 79.516 70.444 79.258 70.244 L 79.258 70.244 L 79.258 70.244 Q 79 70.043 78.714 69.871 L 78.714 69.871 L 78.714 69.871 Q 78.542 69.757 78.399 69.671 L 78.399 69.671 L 78.399 69.671 Q 78.256 69.585 78.141 69.528 L 78.141 69.528 L 77.454 69.241 L 77.683 68.497 L 77.683 68.497 Q 77.798 68.039 77.626 67.781 L 77.626 67.781 L 77.626 67.781 Q 77.454 67.523 76.939 67.065 L 76.939 67.065 L 76.939 67.065 Q 76.767 66.893 76.595 66.722 L 76.595 66.722 L 76.595 66.722 Q 76.423 66.55 76.309 66.378 L 76.309 66.378 L 75.335 65.29 L 76.882 64.889 L 76.882 64.889 Q 78.313 64.488 78.8 63.858 L 78.8 63.858 L 78.8 63.858 Q 79.287 63.228 79.172 61.74 L 79.172 61.74 L 79.172 61.74 Q 78.027 61.51 77.254 61.682 L 77.254 61.682 L 77.254 61.682 Q 76.481 61.854 75.679 62.083 L 75.679 62.083 L 75.679 62.083 Q 74.648 62.369 73.589 62.57 L 73.589 62.57 L 73.589 62.57 Q 72.529 62.77 71.27 62.77 L 71.27 62.77 L 71.27 62.77 Q 70.811 62.77 70.411 62.742 L 70.411 62.742 L 70.411 62.742 Q 70.01 62.713 69.552 62.656 L 69.552 62.656 L 68.979 62.541 L 68.979 62.541 Q 68.864 61.911 68.75 61.825 L 68.75 61.825 L 68.75 61.825 Q 68.635 61.74 68.521 61.625 L 68.521 61.625 L 68.521 61.625 Q 68.234 61.339 67.92 60.852 L 67.92 60.852 L 67.92 60.852 Q 67.605 60.365 67.776 59.621 L 67.776 59.621 L 67.776 59.621 Q 67.49 59.105 67.433 58.59 L 67.433 58.59 L 67.433 58.59 Q 67.089 59.277 66.917 60.022 L 66.917 60.022 L 66.688 60.594 L 66.116 60.709 L 66.116 60.709 Q 66.001 60.766 65.944 60.966 L 65.944 60.966 L 65.944 60.966 Q 65.887 61.167 65.887 61.281 L 65.887 61.281 L 65.6 62.255 L 65.6 62.255 Q 65.486 62.369 65.371 62.455 L 65.371 62.455 L 65.371 62.455 Q 65.257 62.541 65.142 62.656 L 65.142 62.656 L 65.142 62.656 Q 65.028 63.171 64.856 63.687 L 64.856 63.687 L 64.856 63.687 Q 64.684 64.202 64.512 64.66 L 64.512 64.66 L 64.512 64.66 Q 64.226 65.405 64.025 66.12 L 64.025 66.12 L 64.025 66.12 Q 63.825 66.836 63.882 67.523 L 63.882 67.523 L 63.653 68.153 L 63.653 68.153 Q 63.367 68.497 63.023 68.697 L 63.023 68.697 L 63.023 68.697 Q 62.68 68.898 62.336 69.07 L 62.336 69.07 L 62.336 69.07 Q 62.222 69.184 62.021 69.27 L 62.021 69.27 L 62.021 69.27 Q 61.821 69.356 61.706 69.413 L 61.706 69.413 L 61.534 70.043 L 60.847 70.158 L 60.847 70.158 Q 60.217 70.272 59.96 70.329 L 59.96 70.329 L 59.96 70.329 Q 59.702 70.387 59.358 70.387 L 59.358 70.387 L 58.786 70.329 L 58.786 70.329 Q 58.156 69.814 57.812 69.499 L 57.812 69.499 L 57.812 69.499 Q 57.468 69.184 57.01 68.898 L 57.01 68.898 L 57.01 68.898 Q 56.495 68.211 56.438 67.867 L 56.438 67.867 L 56.438 67.867 Q 56.38 67.523 56.323 67.237 L 56.323 67.237 L 56.323 67.237 Q 56.209 66.893 56.18 66.664 L 56.18 66.664 L 56.18 66.664 Q 56.151 66.435 56.037 66.321 L 56.037 66.321 L 55.292 65.634 L 55.922 65.118 L 55.98 64.145 L 55.98 64.145 Q 57.125 61.224 58.413 58.533 L 58.413 58.533 L 58.413 58.533 Q 59.702 55.841 61.076 53.035 L 61.076 53.035 L 61.076 53.035 Q 61.534 52.119 61.964 51.203 L 61.964 51.203 L 61.964 51.203 Q 62.393 50.286 62.851 49.37 L 62.851 49.37 L 62.851 49.37 Q 62.794 49.198 62.794 48.969 L 62.794 48.969 L 62.794 48.969 Q 62.794 48.74 62.909 48.454 L 62.909 48.454 L 62.909 48.454 Q 63.539 47.48 63.94 46.707 L 63.94 46.707 L 63.94 46.707 Q 64.34 45.934 64.741 45.132 L 64.741 45.132 L 64.741 45.132 Q 65.199 44.159 65.686 43.243 L 65.686 43.243 L 65.686 43.243 Q 66.173 42.326 66.917 41.353 L 66.917 41.353 L 67.834 40.952 L 67.834 40.952 Q 68.005 40.895 68.234 40.809 L 68.234 40.809 L 68.234 40.809 Q 68.464 40.723 68.75 40.723 L 68.75 40.723 L 69.609 40.837 L 69.609 40.837 Q 71.212 40.093 72.415 38.747 L 72.415 38.747 L 72.415 38.747 Q 73.617 37.401 74.877 35.512 L 74.877 35.512 L 75.45 34.71 L 76.194 35.168 L 76.194 35.168 Q 76.481 35.34 76.996 35.483 L 76.996 35.483 L 76.996 35.483 Q 77.512 35.626 78.084 35.798 L 78.084 35.798 L 78.084 35.798 Q 79.115 36.027 80.031 36.313 L 80.031 36.313 L 80.031 36.313 Q 80.948 36.6 81.52 37.172 L 81.52 37.172 L 81.52 37.172 Q 81.864 38.089 81.921 38.547 L 81.921 38.547 L 81.921 38.547 Q 81.978 39.005 82.093 39.463 L 82.093 39.463 L 82.093 39.463 Q 82.265 40.437 82.408 41.41 L 82.408 41.41 L 82.408 41.41 Q 82.551 42.384 82.608 43.586 L 82.608 43.586 L 82.608 43.586 Q 82.895 44.56 83.095 45.505 L 83.095 45.505 L 83.095 45.505 Q 83.295 46.45 83.467 47.423 L 83.467 47.423 L 83.467 47.423 Q 83.754 48.797 84.04 50.086 L 84.04 50.086 L 84.04 50.086 Q 84.326 51.374 84.784 52.52 L 84.784 52.52 L 84.784 52.52 Q 85.242 52.52 85.357 52.577 L 85.357 52.577 L 85.357 52.577 Q 85.643 52.462 85.958 52.405 L 85.958 52.405 L 85.958 52.405 Q 86.273 52.348 86.674 52.291 L 86.674 52.291 L 87.304 52.233 L 87.533 52.806 L 87.533 52.806 Q 87.59 53.092 88.106 53.379 L 88.106 53.379 L 88.106 53.379 Q 88.85 53.436 89.194 53.694 L 89.194 53.694 L 89.194 53.694 Q 89.537 53.951 89.824 54.238 L 89.824 54.238 L 89.824 54.238 Q 90.053 54.467 90.282 54.581 L 90.282 54.581 L 91.141 54.925 L 90.683 55.784 L 90.683 55.784 Q 90.11 56.815 89.051 57.76 L 89.051 57.76 L 89.051 57.76 Q 87.991 58.704 86.674 59.334 L 86.674 59.334 L 86.674 59.334 Q 86.731 59.678 86.76 59.993 L 86.76 59.993 L 86.76 59.993 Q 86.789 60.308 86.903 60.651 L 86.903 60.651 L 86.903 60.651 Q 87.075 61.625 87.19 62.656 L 87.19 62.656 L 87.19 62.656 Q 87.304 63.687 87.19 64.775 L 87.19 64.775 Z  M 70.525 55.097 L 70.525 55.097 L 70.525 55.097 Q 72.243 54.982 73.646 54.839 L 73.646 54.839 L 73.646 54.839 Q 75.049 54.696 76.767 54.352 L 76.767 54.352 L 76.767 54.352 Q 76.366 52.634 75.908 50.773 L 75.908 50.773 L 75.908 50.773 Q 75.45 48.912 74.935 47.079 L 74.935 47.079 L 74.591 47.652 L 74.591 47.652 Q 73.446 48.855 72.386 50.344 L 72.386 50.344 L 72.386 50.344 Q 71.327 51.833 70.582 53.15 L 70.582 53.15 L 70.582 53.15 Q 70.239 53.665 69.895 54.18 L 69.895 54.18 L 69.895 54.18 Q 69.552 54.696 69.265 55.211 L 69.265 55.211 L 69.265 55.211 Q 69.609 55.154 69.924 55.154 L 69.924 55.154 L 69.924 55.154 Q 70.239 55.154 70.525 55.097 Z  M 113.99 70.673 L 110.726 68.325 L 110.726 68.325 Q 109.867 65.462 108.235 62.828 L 108.235 62.828 L 108.235 62.828 Q 106.603 60.193 105.114 58.304 L 105.114 58.304 L 105.114 58.304 Q 102.766 60.079 100.676 62.226 L 100.676 62.226 L 100.676 62.226 Q 98.585 64.374 96.867 66.836 L 96.867 66.836 L 96.867 66.836 Q 96.753 68.039 96.581 68.812 L 96.581 68.812 L 96.581 68.812 Q 96.409 69.585 95.98 70.1 L 95.98 70.1 L 95.98 70.1 Q 95.55 70.616 94.892 70.988 L 94.892 70.988 L 94.892 70.988 Q 94.233 71.36 93.202 71.761 L 93.202 71.761 L 93.202 71.761 Q 91.313 70.387 90.454 68.354 L 90.454 68.354 L 90.454 68.354 Q 89.595 66.321 90.225 64.316 L 90.225 64.316 L 90.225 64.316 Q 90.282 62.885 90.94 61.51 L 90.94 61.51 L 90.94 61.51 Q 91.599 60.136 92.544 58.905 L 92.544 58.905 L 92.544 58.905 Q 93.489 57.674 94.577 56.557 L 94.577 56.557 L 94.577 56.557 Q 95.665 55.44 96.638 54.467 L 96.638 54.467 L 96.638 54.467 Q 96.81 53.894 97.297 53.465 L 97.297 53.465 L 97.297 53.465 Q 97.784 53.035 98.328 52.634 L 98.328 52.634 L 98.328 52.634 Q 98.872 52.233 99.416 51.775 L 99.416 51.775 L 99.416 51.775 Q 99.96 51.317 100.303 50.687 L 100.303 50.687 L 100.303 50.687 Q 99.903 49.37 98.757 48.024 L 98.757 48.024 L 98.757 48.024 Q 97.612 46.679 96.638 45.247 L 96.638 45.247 L 96.638 45.247 Q 96.524 44.961 96.209 45.075 L 96.209 45.075 L 96.209 45.075 Q 95.894 45.19 95.779 45.018 L 95.779 45.018 L 95.779 45.018 Q 95.894 44.273 95.464 43.414 L 95.464 43.414 L 95.464 43.414 Q 95.035 42.555 94.405 41.925 L 94.405 41.925 L 94.405 41.925 Q 94.577 41.296 94.806 40.408 L 94.806 40.408 L 94.806 40.408 Q 95.035 39.52 94.691 38.432 L 94.691 38.432 L 94.691 38.432 Q 94.691 37.974 94.863 37.545 L 94.863 37.545 L 94.863 37.545 Q 95.035 37.115 95.207 36.743 L 95.207 36.743 L 95.207 36.743 Q 95.379 36.371 95.493 35.998 L 95.493 35.998 L 95.493 35.998 Q 95.608 35.626 95.436 35.283 L 95.436 35.283 L 95.436 35.283 Q 96.18 35.168 96.753 35.34 L 96.753 35.34 L 96.753 35.34 Q 97.326 35.512 97.841 35.741 L 97.841 35.741 L 97.841 35.741 Q 98.356 35.97 98.786 36.084 L 98.786 36.084 L 98.786 36.084 Q 99.215 36.199 99.673 36.027 L 99.673 36.027 L 99.673 36.027 Q 99.616 36.313 99.673 36.428 L 99.673 36.428 L 99.673 36.428 Q 99.731 36.542 99.845 36.6 L 99.845 36.6 L 99.845 36.6 Q 99.96 36.657 100.074 36.743 L 100.074 36.743 L 100.074 36.743 Q 100.189 36.829 100.189 37.001 L 100.189 37.001 L 100.189 37.001 Q 101.105 37.287 102.193 38.232 L 102.193 38.232 L 102.193 38.232 Q 103.281 39.177 104.283 40.322 L 104.283 40.322 L 104.283 40.322 Q 105.286 41.467 106.087 42.613 L 106.087 42.613 L 106.087 42.613 Q 106.889 43.758 107.29 44.331 L 107.29 44.331 L 107.29 44.331 Q 108.664 43.472 110.268 42.298 L 110.268 42.298 L 110.268 42.298 Q 111.871 41.124 113.589 39.864 L 113.589 39.864 L 113.589 39.864 Q 115.307 38.604 117.054 37.487 L 117.054 37.487 L 117.054 37.487 Q 118.8 36.371 120.461 35.684 L 120.461 35.684 L 120.461 35.684 Q 121.435 36.142 121.979 36.8 L 121.979 36.8 L 121.979 36.8 Q 122.523 37.459 122.895 38.175 L 122.895 38.175 L 122.895 38.175 Q 123.267 38.89 123.553 39.663 L 123.553 39.663 L 123.553 39.663 Q 123.84 40.437 124.355 41.009 L 124.355 41.009 L 124.355 41.009 Q 123.897 41.983 123.353 42.641 L 123.353 42.641 L 123.353 42.641 Q 122.809 43.3 122.58 44.159 L 122.58 44.159 L 122.58 44.159 Q 121.377 44.674 119.717 45.705 L 119.717 45.705 L 119.717 45.705 Q 118.228 46.621 116.08 48.167 L 116.08 48.167 L 116.08 48.167 Q 113.933 49.714 110.898 52.291 L 110.898 52.291 L 110.898 52.291 Q 111.585 53.092 112.043 53.837 L 112.043 53.837 L 112.043 53.837 Q 112.501 54.581 112.787 55.097 L 112.787 55.097 L 112.787 55.097 Q 113.074 55.727 113.303 56.242 L 113.303 56.242 L 113.303 56.242 Q 113.818 56.643 114.162 57.158 L 114.162 57.158 L 114.162 57.158 Q 114.505 57.674 114.82 58.218 L 114.82 58.218 L 114.82 58.218 Q 115.135 58.762 115.536 59.248 L 115.536 59.248 L 115.536 59.248 Q 115.937 59.735 116.567 60.022 L 116.567 60.022 L 116.567 60.022 Q 116.911 61.74 117.54 63.085 L 117.54 63.085 L 117.54 63.085 Q 118.17 64.431 118.113 65.863 L 118.113 65.863 L 118.113 65.863 Q 117.712 67.18 116.939 68.039 L 116.939 68.039 L 116.939 68.039 Q 116.166 68.898 115.822 69.814 L 115.822 69.814 L 115.822 69.814 Q 115.307 69.986 114.792 70.158 L 114.792 70.158 L 114.792 70.158 Q 114.276 70.329 113.99 70.673 L 113.99 70.673 Z " fill="rgb(0,173,181)"/></g></svg>